<svg width="20" height="20" viewBox="0 0 20 20" fill="none" xmlns="http://www.w3.org/2000/svg">
<g filter="url(#shadow)" clip-path="url(#clip0_2_2347)">
<path d="M9.88583 0.0299955C9.95432 -0.00999849 10.039 -0.00999849 10.1072 0.0299955L13.4341 1.97737C13.5064 2.01956 13.5064 2.1242 13.4341 2.16638L5.07944 7.05633C5.04574 7.07605 5.0252 7.11194 5.0252 7.15084V12.8618C5.0252 12.8828 5.04821 12.896 5.06656 12.8853L9.9965 9.99972L13.4341 12.0117C13.5064 12.0539 13.5064 12.1586 13.4341 12.2008L5.13368 17.0589C5.06519 17.0989 4.98055 17.0989 4.91234 17.0589L1.5323 15.0806C1.46519 15.0412 1.42383 14.9694 1.42383 14.8916V5.10813C1.42383 5.03034 1.46519 4.95829 1.5323 4.91912L9.88583 0.0297213V0.0299955Z" fill="white"/>
<path d="M10.1083 19.971C10.0398 20.011 9.9552 20.011 9.88699 19.971L6.5601 18.0237C6.48778 17.9815 6.48778 17.8768 6.5601 17.8346L14.9147 12.9447C14.9484 12.925 14.969 12.8891 14.969 12.8502V7.13928C14.969 7.11819 14.946 7.10504 14.9276 7.11572L9.99766 10.0013L6.5601 7.98929C6.48778 7.9471 6.48778 7.84246 6.5601 7.80027L14.8605 2.9421C14.929 2.90211 15.0136 2.90211 15.0818 2.9421L18.4619 4.92044C18.529 4.95988 18.5703 5.03165 18.5703 5.10945V14.8929C18.5703 14.9707 18.529 15.0427 18.4619 15.0819L10.1083 19.9713V19.971Z" fill="white"/>
</g>
<defs>
<filter id="shadow" x="-20%" y="-20%" width="140%" height="140%">
  <feDropShadow dx="0" dy="1" stdDeviation="2" flood-color="#000000" flood-opacity="0.15"/>
</filter>
<clipPath id="clip0_2_2347">
<rect width="20" height="20" fill="white"/>
</clipPath>
</defs>
</svg>
