<svg width="21" height="21" viewBox="0 0 21 21" fill="none" xmlns="http://www.w3.org/2000/svg">
<path d="M10.4818 2.62109C14.8237 2.62109 18.3435 6.14089 18.3435 10.4828C18.3435 14.8247 14.8237 18.3445 10.4818 18.3445C6.13991 18.3445 2.62012 14.8247 2.62012 10.4828C2.62012 6.14089 6.13991 2.62109 10.4818 2.62109ZM10.4818 3.93137C6.86356 3.93137 3.9304 6.86453 3.9304 10.4828C3.9304 14.101 6.86356 17.0342 10.4818 17.0342C14.1 17.0342 17.0332 14.101 17.0332 10.4828C17.0332 6.86453 14.1 3.93137 10.4818 3.93137ZM14.4135 8.09168L14.8989 8.53271L10.3752 13.5102L9.91367 14.0187L6.17562 10.2815L7.10288 9.35419L9.86845 12.1198L13.9281 7.65151L14.4135 8.09168Z" fill="#5A636B"/>
</svg>
