<svg width="21" height="21" viewBox="0 0 21 21" fill="none" xmlns="http://www.w3.org/2000/svg">
<path fill-rule="evenodd" clip-rule="evenodd" d="M4.30174 4.30116C6.54412 2.05881 10.1801 2.05833 12.4226 4.30055L12.6264 4.51529C14.5158 6.60657 14.592 9.75191 12.8587 11.9304L18.3001 17.3718L17.3736 18.2983L11.9322 12.8569C9.67791 14.6515 6.38763 14.5073 4.30174 12.4214C2.05958 10.179 2.05958 6.54356 4.30174 4.30116ZM5.22824 5.22766C3.49778 6.95837 3.49778 9.76415 5.22824 11.4949C6.95893 13.2255 9.76526 13.226 11.496 11.4955C13.2268 9.7647 13.2268 6.95781 11.496 5.22706C9.76528 3.49653 6.95894 3.49701 5.22824 5.22766Z" fill="currentColor"/>
</svg>
