<svg width="21" height="21" viewBox="0 0 21 21" fill="none" xmlns="http://www.w3.org/2000/svg">
<path d="M17.1923 4.6393L15.7865 6.04427C18.279 7.85453 19.2175 10.4827 19.2175 10.4827C19.2175 10.4827 17.0337 16.5973 10.4823 16.5973C8.79213 16.5973 7.39401 16.1878 6.24775 15.5839L4.6389 17.1936L3.71249 16.2663L16.2659 3.71289L17.1923 4.6393ZM10.4823 4.36803C11.5422 4.36803 12.4875 4.52881 13.328 4.79711L11.0845 7.04063C10.8889 7.00663 10.6877 6.98859 10.4823 6.98859C8.55254 6.98859 6.98819 8.55294 6.98819 10.4827C6.98819 10.6881 7.00623 10.8893 7.04023 11.0849L4.11172 14.0134C2.41383 12.3441 1.74707 10.4827 1.74707 10.4827C1.74707 10.4827 3.93087 4.36803 10.4823 4.36803ZM12.3974 9.43342C12.5684 9.74487 12.6661 10.1023 12.6661 10.4827C12.6661 11.6887 11.6883 12.6665 10.4823 12.6665C10.1022 12.6665 9.74517 12.5685 9.43387 12.3978L8.48443 13.3472C9.05084 13.743 9.73887 13.9767 10.4823 13.9767C12.412 13.9767 13.9763 12.4124 13.9763 10.4827C13.9763 9.73902 13.7428 9.05049 13.3468 8.48398L12.3974 9.43342Z" fill="#5A636B"/>
</svg>
