<svg width="21" height="21" viewBox="0 0 21 21" fill="none" xmlns="http://www.w3.org/2000/svg">
<path d="M10.4828 2.62109C14.8247 2.62109 18.3445 6.14089 18.3445 10.4828C18.3445 14.8247 14.8247 18.3445 10.4828 18.3445C6.14089 18.3445 2.62109 14.8247 2.62109 10.4828C2.62109 6.14089 6.14089 2.62109 10.4828 2.62109ZM10.4828 3.93137C6.86453 3.93137 3.93137 6.86453 3.93137 10.4828C3.93137 14.101 6.86453 17.0342 10.4828 17.0342C14.101 17.0342 17.0342 14.101 17.0342 10.4828C17.0342 6.86453 14.101 3.93137 10.4828 3.93137ZM13.1033 6.98869C13.5858 6.98869 13.9769 7.37978 13.9769 7.86221V13.1033C13.9769 13.5858 13.5858 13.9769 13.1033 13.9769H7.86221C7.37978 13.9769 6.98869 13.5858 6.98869 13.1033V7.86221C6.98869 7.37978 7.37978 6.98869 7.86221 6.98869H13.1033Z" fill="#5A636B"/>
</svg>
