<svg width="21" height="21" viewBox="0 0 21 21" fill="none" xmlns="http://www.w3.org/2000/svg">
<path d="M10.4823 1.9668C12.7738 1.9668 14.6315 3.82447 14.6315 6.11602H13.3212C13.3212 4.54811 12.0502 3.27708 10.4823 3.27708C8.9144 3.27708 7.64336 4.54811 7.64336 6.11602V6.98954H15.7234C16.6883 6.98954 17.4705 7.77171 17.4705 8.73658V16.5983C17.4705 17.5631 16.6883 18.3453 15.7234 18.3453H5.24118C4.33652 18.3453 3.59285 17.6576 3.50352 16.7765L3.49414 16.5983V8.73658C3.49414 7.77171 4.27632 6.98954 5.24118 6.98954H6.33308V6.11602C6.33308 3.82447 8.19075 1.9668 10.4823 1.9668ZM5.24118 8.29982C4.99996 8.29982 4.80442 8.49536 4.80442 8.73658V16.5983C4.80442 16.8395 4.99996 17.035 5.24118 17.035H15.7234C15.9646 17.035 16.1602 16.8395 16.1602 16.5983V8.73658C16.1602 8.49536 15.9646 8.29982 15.7234 8.29982H5.24118ZM11.1374 14.4145H9.82716V10.9204H11.1374V14.4145Z" fill="#5A636B"/>
</svg>
