<svg width="21" height="21" viewBox="0 0 21 21" fill="none" xmlns="http://www.w3.org/2000/svg">
<path d="M10.4823 4.36914C17.0337 4.36914 19.2175 10.4838 19.2175 10.4838C19.2175 10.4838 17.0337 16.5984 10.4823 16.5984C3.93087 16.5984 1.74707 10.4838 1.74707 10.4838C1.74707 10.4838 3.93087 4.36914 10.4823 4.36914ZM10.4823 5.67942C7.67009 5.67942 5.81894 6.9737 4.63549 8.29913C4.03775 8.96859 3.61627 9.64176 3.34568 10.1468C3.27913 10.271 3.22203 10.3844 3.17422 10.4838C3.22203 10.5831 3.27913 10.6965 3.34568 10.8207C3.61627 11.3258 4.03775 11.999 4.63549 12.6684C5.81894 13.9939 7.67009 15.2881 10.4823 15.2881C13.2944 15.2881 15.1456 13.9939 16.3291 12.6684C16.9268 11.999 17.3483 11.3258 17.6189 10.8207C17.6853 10.6966 17.7417 10.583 17.7895 10.4838C17.7417 10.3845 17.6853 10.2709 17.6189 10.1468C17.3483 9.64176 16.9268 8.96859 16.3291 8.29913C15.1456 6.9737 13.2944 5.67942 10.4823 5.67942ZM10.4823 6.9897C12.412 6.9897 13.9763 8.55405 13.9763 10.4838C13.9763 12.4135 12.412 13.9779 10.4823 13.9779C8.55254 13.9779 6.98819 12.4135 6.98819 10.4838C6.98819 8.55405 8.55254 6.9897 10.4823 6.9897ZM10.4823 8.29998C9.27619 8.29998 8.29847 9.2777 8.29847 10.4838C8.29847 11.6899 9.27619 12.6676 10.4823 12.6676C11.6883 12.6676 12.6661 11.6899 12.6661 10.4838C12.6661 9.2777 11.6883 8.29998 10.4823 8.29998ZM2.97887 10.9291L2.97972 10.9282L2.98058 10.9265V10.9257L2.97887 10.9291ZM17.984 10.9265L17.9848 10.9282L17.9857 10.9291C17.9855 10.9287 17.9847 10.9277 17.984 10.9257V10.9265Z" fill="#5A636B"/>
</svg>
