<svg width="21" height="21" viewBox="0 0 21 21" fill="none" xmlns="http://www.w3.org/2000/svg">
<path d="M10.4823 1.96484C12.7738 1.96484 14.6315 3.82251 14.6315 6.11406H13.3212C13.3212 4.54616 12.0502 3.27512 10.4823 3.27512C8.9144 3.27512 7.64336 4.54616 7.64336 6.11406V6.98758H15.7234C16.6883 6.98758 17.4705 7.76976 17.4705 8.73462V16.5963C17.4705 17.5612 16.6883 18.3433 15.7234 18.3433H5.24118C4.27632 18.3433 3.49414 17.5612 3.49414 16.5963V8.73462C3.49414 7.76976 4.27632 6.98758 5.24118 6.98758H6.33308V6.11406C6.33308 3.82251 8.19075 1.96484 10.4823 1.96484ZM9.82716 14.4125H11.1374V10.9184H9.82716V14.4125Z" fill="#5A636B"/>
</svg>
