<svg width="21" height="21" viewBox="0 0 21 21" fill="none" xmlns="http://www.w3.org/2000/svg">
<path d="M13.5391 13.1029C14.4509 13.1029 15.2313 13.6619 15.5583 14.4558H18.3435V15.7661H15.6683C15.4496 16.7413 14.5803 17.4705 13.5391 17.4705C12.4979 17.4705 11.6286 16.7413 11.4099 15.7661H2.62012V14.4558H11.52C11.8469 13.6619 12.6273 13.1029 13.5391 13.1029ZM13.5391 14.4131C13.0567 14.4131 12.6656 14.8042 12.6656 15.2867C12.6657 15.769 13.0567 16.1602 13.5391 16.1602C14.0215 16.1602 14.4125 15.769 14.4126 15.2867C14.4126 14.8042 14.0215 14.4131 13.5391 14.4131ZM7.42448 8.2985C8.40223 8.2985 9.22928 8.94127 9.50762 9.82716H18.3435V11.1374H9.50762C9.22928 12.0233 8.40223 12.6661 7.42448 12.6661C6.44672 12.6661 5.61967 12.0233 5.34134 11.1374H2.62012V9.82716H5.34134C5.61967 8.94127 6.44672 8.2985 7.42448 8.2985ZM7.42448 9.60878C6.94204 9.60878 6.55096 9.99987 6.55096 10.4823C6.55096 10.9647 6.94204 11.3558 7.42448 11.3558C7.90691 11.3558 8.298 10.9647 8.298 10.4823C8.298 9.99987 7.90691 9.60878 7.42448 9.60878ZM13.5391 3.49414C14.5803 3.49414 15.4496 4.22334 15.6683 5.19853H18.3435V6.50881H15.5583C15.2313 7.30268 14.4509 7.86174 13.5391 7.86174C12.6273 7.86174 11.8469 7.30268 11.52 6.50881H2.62012V5.19853H11.4099C11.6286 4.22334 12.4979 3.49414 13.5391 3.49414ZM13.5391 4.80442C13.0567 4.80442 12.6657 5.19559 12.6656 5.67794C12.6656 6.16037 13.0567 6.55146 13.5391 6.55146C14.0215 6.55146 14.4126 6.16037 14.4126 5.67794C14.4125 5.19559 14.0215 4.80442 13.5391 4.80442Z" fill="#5A636B"/>
</svg>
