<svg width="24" height="24" viewBox="0 0 24 24" fill="none" xmlns="http://www.w3.org/2000/svg">
<path d="M11.5422 3.03621C11.7176 2.63889 12.2816 2.63906 12.4572 3.03621L14.6682 8.04989C14.9199 8.62083 15.3765 9.07747 15.9475 9.32919L20.9622 11.5401C21.3599 11.7155 21.3599 12.2798 20.9622 12.4552L15.9475 14.6661C15.3764 14.9179 14.9199 15.3743 14.6682 15.9454L12.4572 20.9611C12.2818 21.3588 11.7175 21.3588 11.5422 20.9611L9.33119 15.9454C9.07951 15.3744 8.62381 14.9179 8.05286 14.6661L3.03719 12.4552C2.63988 12.2798 2.64001 11.7157 3.03719 11.5401L8.05286 9.32919C8.62382 9.07747 9.0804 8.62083 9.33217 8.04989L11.5422 3.03621ZM10.7043 8.65536C10.3015 9.56869 9.57167 10.2985 8.65834 10.7013L5.71788 11.9972L8.65736 13.2931C9.57107 13.6959 10.3015 14.4262 10.7043 15.34L12.0002 18.2794L13.2961 15.34C13.6988 14.4263 14.4284 13.6959 15.342 13.2931L18.2815 11.9972L15.342 10.7013C14.4286 10.2985 13.6989 9.56872 13.2961 8.65536L12.0002 5.7159L10.7043 8.65536Z" fill="#5A636B"/>
</svg>
