<svg width="21" height="21" viewBox="0 0 21 21" fill="none" xmlns="http://www.w3.org/2000/svg">
<path fill-rule="evenodd" clip-rule="evenodd" d="M16.5974 3.49414C17.5623 3.49414 18.3445 4.27632 18.3445 5.24118V15.7234C18.3445 16.6281 17.6568 17.3717 16.7757 17.4611L16.5974 17.4705H4.36813L4.18985 17.4611C3.30875 17.3717 2.62109 16.6281 2.62109 15.7234V5.24118C2.62109 4.27632 3.40327 3.49414 4.36813 3.49414H16.5974ZM4.36813 4.80442C4.12692 4.80442 3.93137 4.99996 3.93137 5.24118V15.7234C3.93137 15.9646 4.12692 16.1602 4.36813 16.1602H12.4482V4.80442H4.36813ZM16.5974 16.1602C16.8386 16.1602 17.0342 15.9646 17.0342 15.7234V5.24118C17.0342 4.99996 16.8386 4.80442 16.5974 4.80442H13.7585V16.1602H16.5974Z" fill="#5A636B"/>
</svg>
