<svg width="21" height="21" viewBox="0 0 21 21" fill="none" xmlns="http://www.w3.org/2000/svg">
<path d="M7.86221 4.717H4.36813C4.12692 4.717 3.93137 4.91255 3.93137 5.15376V16.5095C3.93137 16.7507 4.12692 16.9463 4.36813 16.9463H15.7239C15.9651 16.9463 16.1607 16.7507 16.1607 16.5095V13.0154H17.4709V16.5095C17.4709 17.4142 16.7833 18.1578 15.9022 18.2472L15.7239 18.2566H4.36813L4.18985 18.2472C3.36738 18.1638 2.71386 17.5103 2.63048 16.6878L2.62109 16.5095V5.15376C2.62109 4.1889 3.40327 3.40672 4.36813 3.40672H7.86221V4.717ZM18.3436 9.52136H17.0333V4.76989L10.0716 11.7316L9.1452 10.8052L16.1069 3.84348H11.3554V2.5332H18.3436V9.52136Z" fill="#5A636B"/>
</svg>
