<svg width="21" height="21" viewBox="0 0 21 21" fill="none" xmlns="http://www.w3.org/2000/svg">
<path d="M10.4818 2.62109C14.8237 2.62109 18.3435 6.14089 18.3435 10.4828C18.3435 14.8247 14.8237 18.3445 10.4818 18.3445C6.13991 18.3445 2.62012 14.8247 2.62012 10.4828C2.62012 6.14089 6.13991 2.62109 10.4818 2.62109ZM10.4818 3.93137C6.86356 3.93137 3.9304 6.86453 3.9304 10.4828C3.9304 14.101 6.86356 17.0342 10.4818 17.0342C14.1 17.0342 17.0332 14.101 17.0332 10.4828C17.0332 6.86453 14.1 3.93137 10.4818 3.93137ZM11.1369 14.4136H9.82666V13.1033H11.1369V14.4136ZM10.4818 6.33355C11.898 6.33355 13.1022 7.43557 13.1024 8.86028C13.1024 9.70333 12.675 10.4376 12.0429 10.8905L12.042 10.8914C11.6614 11.1633 11.1369 11.4918 11.1369 12.2298H9.82666C9.82666 10.7229 10.9985 10.0255 11.2794 9.82507C11.5984 9.5966 11.7921 9.24502 11.7921 8.86028C11.7919 8.2187 11.2353 7.64383 10.4818 7.64383C9.72831 7.64383 9.17166 8.2187 9.17152 8.86028H7.86124C7.86137 7.43557 9.06563 6.33355 10.4818 6.33355Z" fill="#5A636B"/>
</svg>
