<svg width="21" height="21" viewBox="0 0 21 21" fill="none" xmlns="http://www.w3.org/2000/svg">
<path fill-rule="evenodd" clip-rule="evenodd" d="M8.37367 3.71094C8.77905 3.71097 9.16783 3.87214 9.45448 4.15879L10.6897 5.394C10.7306 5.43492 10.7862 5.45794 10.8441 5.45798H17.0338C17.8781 5.45798 18.5625 6.14238 18.5625 6.98664V15.7218C18.5625 16.5661 17.8781 17.2505 17.0338 17.2505H3.931C3.08675 17.2505 2.40234 16.5661 2.40234 15.7218V5.2396C2.40234 4.39534 3.08675 3.71094 3.931 3.71094H8.37367ZM3.931 5.02122C3.8104 5.02122 3.71262 5.11899 3.71262 5.2396V15.7218C3.71262 15.8424 3.8104 15.9402 3.931 15.9402H17.0338C17.1544 15.9402 17.2522 15.8424 17.2522 15.7218V6.98664C17.2522 6.86603 17.1544 6.76826 17.0338 6.76826H10.8441C10.4387 6.76822 10.0499 6.60706 9.76328 6.32041L8.52807 5.0852C8.48715 5.04427 8.43154 5.02125 8.37367 5.02122H3.931Z" fill="#5A636B"/>
</svg>
