<svg width="21" height="21" viewBox="0 0 21 21" fill="none" xmlns="http://www.w3.org/2000/svg">
<path d="M10.4822 13.5399C11.2058 13.5399 11.7924 14.1265 11.7924 14.8502C11.7924 15.5738 11.2058 16.1604 10.4822 16.1604C9.75851 16.1604 9.17188 15.5738 9.17188 14.8502C9.17188 14.1265 9.75851 13.5399 10.4822 13.5399ZM10.4822 9.17229C11.2058 9.17229 11.7924 9.75892 11.7924 10.4826C11.7924 11.2062 11.2058 11.7928 10.4822 11.7928C9.75851 11.7928 9.17188 11.2062 9.17188 10.4826C9.17188 9.75892 9.75851 9.17229 10.4822 9.17229ZM10.4822 4.80469C11.2058 4.80469 11.7924 5.39132 11.7924 6.11497C11.7924 6.83861 11.2058 7.42525 10.4822 7.42525C9.75851 7.42525 9.17188 6.83861 9.17188 6.11497C9.17188 5.39132 9.75851 4.80469 10.4822 4.80469Z" fill="#5A636B"/>
</svg>
