<svg width="21" height="21" viewBox="0 0 21 21" fill="none" xmlns="http://www.w3.org/2000/svg">
<path d="M11.2246 4.84713H5.54671C4.94367 4.84713 4.45481 5.33599 4.45481 5.93903V15.5478C4.4549 16.1507 4.94373 16.6397 5.54671 16.6397H15.1554C15.7584 16.6397 16.2472 16.1507 16.2473 15.5478V9.86987H17.5576V15.5478C17.5575 16.8744 16.4821 17.9499 15.1554 17.9499H5.54671C4.22008 17.9499 3.14462 16.8744 3.14453 15.5478V5.93903C3.14453 4.61235 4.22002 3.53685 5.54671 3.53685H11.2246V4.84713Z" fill="#5A636B"/>
<path fill-rule="evenodd" clip-rule="evenodd" d="M16.8155 6.94819L10.3297 13.4339L7.45071 13.6429L7.65885 10.7622L14.1437 4.2773L16.8155 6.94819ZM8.93075 11.3431L8.86677 12.2251L9.74882 12.1629L14.9635 6.94819L14.1446 6.12926L8.93075 11.3431Z" fill="#5A636B"/>
<path d="M19.0829 4.69188L17.8476 5.92709L17.8425 5.92283L17.7427 6.02263L15.0701 3.35089L15.9607 2.46031C15.9688 2.45218 15.9787 2.44572 15.9871 2.43813L16.4086 2.01758L19.0829 4.69188Z" fill="#5A636B"/>
</svg>
