<svg width="21" height="21" viewBox="0 0 21 21" fill="none" xmlns="http://www.w3.org/2000/svg">
<path d="M13.3219 4.69515V3.60325H7.64407V4.69515H13.3219ZM5.80405 16.9483C5.8169 17.1797 6.0083 17.361 6.23995 17.3612H14.7278C14.9594 17.361 15.1508 17.1797 15.1637 16.9483L15.7719 6.00543H5.19583L5.80405 16.9483ZM9.39111 15.1774H8.08083V8.18923H9.39111V15.1774ZM12.8852 15.1774H11.5749V8.18923H12.8852V15.1774ZM18.7814 6.00543H17.0839L16.4714 17.0217L16.4543 17.1923C16.3332 17.9786 15.6911 18.5855 14.8992 18.6629L14.7278 18.6715H6.23995C5.37076 18.6713 4.64318 18.0347 4.51339 17.1923L4.49633 17.0217L3.88384 6.00543H2.18457V4.69515H6.33379V2.29297H14.6322V4.69515H18.7814V6.00543Z" fill="#5A636B"/>
</svg>
