<svg width="21" height="21" viewBox="0 0 21 21" fill="none" xmlns="http://www.w3.org/2000/svg">
<path d="M10.4823 4.36719C17.0337 4.36719 19.2175 10.4818 19.2175 10.4818C19.2175 10.4818 17.0337 16.5965 10.4823 16.5965C3.93087 16.5965 1.74707 10.4818 1.74707 10.4818C1.74707 10.4818 3.93087 4.36719 10.4823 4.36719ZM10.4823 6.98775C8.55254 6.98775 6.98819 8.5521 6.98819 10.4818C6.98819 12.4116 8.55254 13.9759 10.4823 13.9759C12.412 13.9759 13.9763 12.4116 13.9763 10.4818C13.9763 8.5521 12.412 6.98775 10.4823 6.98775ZM10.4823 8.29803C11.6883 8.29803 12.6661 9.27575 12.6661 10.4818C12.6661 11.6879 11.6883 12.6656 10.4823 12.6656C9.27619 12.6656 8.29847 11.6879 8.29847 10.4818C8.29847 9.27575 9.27619 8.29803 10.4823 8.29803Z" fill="#5A636B"/>
</svg>
