<svg width="21" height="21" viewBox="0 0 21 21" fill="none" xmlns="http://www.w3.org/2000/svg">
<path d="M18.2043 10.8729C18.248 12.9126 17.4908 14.9687 15.9335 16.5261C12.9036 19.5559 7.9914 19.5558 4.96157 16.5261C1.93177 13.4963 1.93177 8.58403 4.96157 5.5542C7.78019 2.73565 12.2266 2.54084 15.2723 4.96645L15.2723 2.09766L16.5826 2.09766L16.5826 7.36863L11.3116 7.36863L11.3116 6.05835L14.5413 6.05835C12.0083 3.97189 8.25629 4.11236 5.88798 6.48061C3.36988 8.99874 3.36988 13.0816 5.88798 15.5997C8.40611 18.1177 12.4889 18.1178 15.007 15.5997C16.3015 14.3052 16.9303 12.5985 16.894 10.9011L17.5491 10.8866L18.2043 10.8729Z" fill="#5A636B"/>
</svg>
