<svg width="21" height="21" viewBox="0 0 21 21" fill="none" xmlns="http://www.w3.org/2000/svg">
<path d="M6.5934 10.1545L6.53454 10.5947L6.28971 14.8506L10.3707 14.4317L10.81 14.3729L17.5576 7.62526V15.5501C17.5575 16.8767 16.4821 17.9522 15.1554 17.9522H5.54671C4.22008 17.9522 3.14462 16.8767 3.14453 15.5501V5.94135C3.14453 4.61466 4.22002 3.53917 5.54671 3.53917H13.2079L6.5934 10.1545Z" fill="#5A636B"/>
<path d="M16.6832 6.64596L10.1984 13.1317L7.47204 13.4925L7.83373 10.7662L14.3186 4.28046L16.6832 6.64596Z" fill="#5A636B"/>
<path d="M18.9489 4.38112L17.6105 5.71955L15.245 3.35406L16.5834 2.01562L18.9489 4.38112Z" fill="#5A636B"/>
</svg>
