<svg width="21" height="21" viewBox="0 0 21 21" fill="none" xmlns="http://www.w3.org/2000/svg">
<path d="M18.3435 16.1599C18.3435 17.1248 17.5613 17.907 16.5964 17.907H4.36716C3.40229 17.907 2.62012 17.1248 2.62012 16.1599V7.42471H18.3435V16.1599ZM6.55096 13.9761H7.86124V12.6658H6.55096V13.9761ZM9.82666 13.9761H11.1369V12.6658H9.82666V13.9761ZM13.1024 13.9761H14.4126V12.6658H13.1024V13.9761ZM6.55096 11.3556H7.86124V10.0453H6.55096V11.3556ZM9.82666 11.3556H11.1369V10.0453H9.82666V11.3556ZM13.1024 11.3556H14.4126V10.0453H13.1024V11.3556ZM7.86124 3.93063H13.1024V2.18359H14.4126V3.93063H16.5964C17.5613 3.93063 18.3435 4.71281 18.3435 5.67767V6.11443H2.62012V5.67767C2.62012 4.71281 3.40229 3.93063 4.36716 3.93063H6.55096V2.18359H7.86124V3.93063Z" fill="#5A636B"/>
</svg>
