<svg width="21" height="21" viewBox="0 0 21 21" fill="none" xmlns="http://www.w3.org/2000/svg">
<path d="M13.5391 13.1029C14.4509 13.1029 15.2313 13.6619 15.5583 14.4558H18.3435V15.7661H15.6683C15.4496 16.7413 14.5803 17.4705 13.5391 17.4705C12.4979 17.4705 11.6286 16.7413 11.4099 15.7661H2.62012V14.4558H11.52C11.8469 13.6619 12.6273 13.1029 13.5391 13.1029ZM7.42448 8.2985C8.40223 8.2985 9.22928 8.94127 9.50762 9.82716H18.3435V11.1374H9.50762C9.22928 12.0233 8.40223 12.6661 7.42448 12.6661C6.44672 12.6661 5.61967 12.0233 5.34134 11.1374H2.62012V9.82716H5.34134C5.61967 8.94127 6.44672 8.2985 7.42448 8.2985ZM13.5391 3.49414C14.5803 3.49414 15.4496 4.22334 15.6683 5.19853H18.3435V6.50881H15.5583C15.2313 7.30268 14.4509 7.86174 13.5391 7.86174C12.6273 7.86174 11.8469 7.30268 11.52 6.50881H2.62012V5.19853H11.4099C11.6286 4.22334 12.4979 3.49414 13.5391 3.49414Z" fill="#5A636B"/>
</svg>
