<svg width="21" height="21" viewBox="0 0 21 21" fill="none" xmlns="http://www.w3.org/2000/svg">
<path d="M7.86124 3.93063H13.1024V2.18359H14.4126V3.93063H16.5964C17.5613 3.93063 18.3435 4.71281 18.3435 5.67767V16.1599C18.3435 17.0646 17.6558 17.8082 16.7747 17.8976L16.5964 17.907H4.36716L4.18887 17.8976C3.30777 17.8082 2.62012 17.0646 2.62012 16.1599V5.67767C2.62012 4.71281 3.40229 3.93063 4.36716 3.93063H6.55096V2.18359H7.86124V3.93063ZM3.9304 16.1599C3.9304 16.4011 4.12594 16.5967 4.36716 16.5967H16.5964C16.8377 16.5967 17.0332 16.4011 17.0332 16.1599V7.42471H3.9304V16.1599ZM7.86124 13.9761H6.55096V12.6658H7.86124V13.9761ZM11.1369 13.9761H9.82666V12.6658H11.1369V13.9761ZM14.4126 13.9761H13.1024V12.6658H14.4126V13.9761ZM7.86124 11.3556H6.55096V10.0453H7.86124V11.3556ZM11.1369 11.3556H9.82666V10.0453H11.1369V11.3556ZM14.4126 11.3556H13.1024V10.0453H14.4126V11.3556Z" fill="#5A636B"/>
</svg>
