<svg width="21" height="21" viewBox="0 0 21 21" fill="none" xmlns="http://www.w3.org/2000/svg">
<path d="M12.6742 3.05748C12.6742 4.64481 14.533 5.75729 16.0505 4.9103L16.6059 4.60065L16.9317 5.1466L18.4689 7.71853L18.8153 8.29775L18.2258 8.62617C16.7238 9.46403 16.7238 11.4991 18.2258 12.3369L18.8153 12.6653L18.4689 13.2446L16.9317 15.8174L16.6059 16.3625L16.0505 16.0528C14.533 15.2064 12.6742 16.3191 12.6742 17.9073V18.5625H8.28952V17.9073C8.28952 16.3186 6.4302 15.2058 4.91316 16.0519L4.35783 16.3616L4.03196 15.8157L2.49477 13.2437L2.14844 12.6636L2.73789 12.3352C4.23903 11.4981 4.23905 9.46501 2.73789 8.62788L2.14844 8.29946L2.49477 7.72024L4.03196 5.14745L4.35783 4.60235L4.91316 4.91201C6.43071 5.75839 8.28952 4.64568 8.28952 3.05748V2.40234H12.6742V3.05748ZM9.53497 3.71262C9.13226 5.76858 6.87178 7.00891 4.85942 6.31612L3.93301 7.86696C5.58551 9.23312 5.586 11.732 3.93301 13.0978L4.85942 14.6478C6.87212 13.9549 9.13226 15.1963 9.53497 17.2522H11.4279C11.8305 15.1963 14.0911 13.9571 16.1034 14.6495L17.0298 13.0996C15.3766 11.733 15.3771 9.23212 17.0298 7.86526L16.1034 6.31442C14.0913 7.00722 11.8305 5.76787 11.4279 3.71262H9.53497ZM10.4819 7.86184C11.9291 7.86184 13.1024 9.03511 13.1024 10.4824C13.1024 11.9297 11.9291 13.103 10.4819 13.103C9.03456 13.103 7.86129 11.9297 7.86129 10.4824C7.86129 9.03511 9.03456 7.86184 10.4819 7.86184ZM10.4819 9.17212C9.7582 9.17212 9.17157 9.75876 9.17157 10.4824C9.17157 11.206 9.7582 11.7927 10.4819 11.7927C11.2055 11.7927 11.7921 11.206 11.7921 10.4824C11.7921 9.75876 11.2055 9.17212 10.4819 9.17212Z" fill="#5A636B"/>
</svg>
