<svg width="21" height="21" viewBox="0 0 21 21" fill="none" xmlns="http://www.w3.org/2000/svg">
<path fill-rule="evenodd" clip-rule="evenodd" d="M17.119 4.77016L15.8189 6.06935C18.2864 7.87873 19.2175 10.4822 19.2175 10.4822C19.2175 10.4822 17.0337 16.5968 10.4823 16.5968C8.81071 16.5968 7.42446 16.1968 6.28528 15.6039L4.766 17.124L3.83874 16.1976L5.14305 14.8924L5.13964 14.889L6.07799 13.9506L6.08225 13.9532L7.59129 12.4442L7.58873 12.4399L8.54329 11.4853L8.54585 11.4896L11.4897 8.54574L11.4855 8.54318L12.44 7.58863L12.4443 7.59118L13.6965 6.33891L13.6923 6.33635L14.6724 5.3562L14.6767 5.35876L16.1926 3.84375L17.119 4.77016ZM13.3715 8.51759C13.753 9.07746 13.9763 9.75363 13.9763 10.4822C13.9763 12.4119 12.412 13.9762 10.4823 13.9762C9.75374 13.9762 9.07757 13.7528 8.5177 13.3714L7.26543 14.6237C8.16384 15.0271 9.22697 15.2865 10.4823 15.2865C13.2944 15.2865 15.1456 13.9922 16.3291 12.6668C16.9268 11.9974 17.3483 11.3242 17.6189 10.8191C17.6853 10.695 17.7417 10.5814 17.7895 10.4822C17.7417 10.3829 17.6853 10.2693 17.6189 10.1452C17.3483 9.64014 16.9268 8.96697 16.3291 8.29751C15.9272 7.84744 15.447 7.40284 14.8797 7.00941L13.3715 8.51759ZM9.47226 12.4169C9.7745 12.575 10.1175 12.666 10.4823 12.666C11.6883 12.666 12.6661 11.6882 12.6661 10.4822C12.6661 10.1174 12.5751 9.77439 12.417 9.47215L9.47226 12.4169Z" fill="#5A636B"/>
<path d="M10.4823 4.36752C11.6432 4.36752 12.6666 4.56034 13.5652 4.87679L12.5142 5.92774C11.9002 5.77012 11.2251 5.6778 10.4823 5.6778C7.67009 5.6778 5.81894 6.97208 4.63549 8.29751C4.03775 8.96697 3.61627 9.64014 3.34568 10.1452C3.27913 10.2694 3.22203 10.3828 3.17422 10.4822C3.22203 10.5815 3.27913 10.6949 3.34568 10.8191C3.61627 11.3242 4.03775 11.9974 4.63549 12.6668C4.80877 12.8609 4.99711 13.0534 5.2002 13.2418L4.27379 14.1682C2.45583 12.4616 1.74707 10.4822 1.74707 10.4822C1.74707 10.4822 3.93087 4.36752 10.4823 4.36752Z" fill="#5A636B"/>
<path d="M10.4823 6.98808C10.7801 6.98808 11.0687 7.02707 11.3447 7.09727L10.1103 8.33163C9.20253 8.48752 8.48763 9.20242 8.33174 10.1102L7.09738 11.3446C7.02717 11.0686 6.98819 10.78 6.98819 10.4822C6.98819 8.55243 8.55254 6.98808 10.4823 6.98808Z" fill="#5A636B"/>
</svg>
