<svg width="21" height="21" viewBox="0 0 21 21" fill="none" xmlns="http://www.w3.org/2000/svg">
<path d="M10.4818 2.62109C14.8237 2.62109 18.3435 6.14089 18.3435 10.4828C18.3435 14.8247 14.8237 18.3445 10.4818 18.3445C6.13991 18.3445 2.62012 14.8247 2.62012 10.4828C2.62012 6.14089 6.13991 2.62109 10.4818 2.62109ZM9.82666 13.1033V14.4136H11.1369V13.1033H9.82666ZM10.4818 6.33355C9.06563 6.33355 7.86137 7.43557 7.86124 8.86028H9.17152C9.17166 8.2187 9.72831 7.64383 10.4818 7.64383C11.2353 7.64383 11.7919 8.2187 11.7921 8.86028C11.7921 9.24502 11.5984 9.5966 11.2794 9.82507C10.9985 10.0255 9.82666 10.7229 9.82666 12.2298H11.1369C11.1369 11.4918 11.6614 11.1633 12.042 10.8914L12.0429 10.8905C12.675 10.4376 13.1024 9.70333 13.1024 8.86028C13.1022 7.43557 11.898 6.33355 10.4818 6.33355Z" fill="#5A636B"/>
</svg>
