<svg width="25" height="25" viewBox="0 0 25 25" fill="none" xmlns="http://www.w3.org/2000/svg">
<path d="M15.2079 18.75C15.438 18.75 15.625 18.937 15.625 19.1671V19.3746C15.625 19.6047 15.438 19.7917 15.2079 19.7917H9.79207C9.56195 19.7917 9.375 19.6047 9.375 19.3746V19.1671C9.375 18.937 9.56195 18.75 9.79207 18.75H15.2079Z" fill="#5A636B"/>
<path d="M15.2079 16.6667C15.438 16.6667 15.625 16.8536 15.625 17.0837V17.2913C15.625 17.5214 15.438 17.7083 15.2079 17.7083H9.79207C9.56195 17.7083 9.375 17.5214 9.375 17.2913V17.0837C9.375 16.8536 9.56195 16.6667 9.79207 16.6667H15.2079Z" fill="#5A636B"/>
<path d="M18.3329 9.375C18.563 9.375 18.75 9.56195 18.75 9.79207V10.5204C18.75 10.7505 18.563 10.9375 18.3329 10.9375H15.0004C14.7703 10.9375 14.5833 10.7505 14.5833 10.5204V9.79207C14.5833 9.56195 14.7703 9.375 15.0004 9.375H18.3329Z" fill="#5A636B"/>
<path fill-rule="evenodd" clip-rule="evenodd" d="M16.6667 2.34375C17.6734 2.34375 18.4896 3.1599 18.4896 4.16667V6.51042H19.7917C21.3737 6.51042 22.6562 7.79293 22.6562 9.375V15.625C22.6562 17.2071 21.3737 18.4896 19.7917 18.4896H18.75V21.875C18.75 22.4142 18.3403 22.8581 17.8151 22.9116L17.7083 22.9167H7.29167L7.18485 22.9116C6.69483 22.8617 6.30498 22.4718 6.25509 21.9818L6.25 21.875V18.4896H5.20833C3.62627 18.4896 2.34375 17.2071 2.34375 15.625V9.375C2.34375 7.79293 3.62627 6.51042 5.20833 6.51042H6.51042V4.16667C6.51042 3.1599 7.32656 2.34375 8.33333 2.34375H16.6667ZM7.8125 21.3542H17.1875V15.1042H7.8125V21.3542ZM5.20833 8.07292C4.48921 8.07292 3.90625 8.65588 3.90625 9.375V15.625C3.90625 16.3441 4.48921 16.9271 5.20833 16.9271H6.25V14.5833C6.25 14.008 6.71637 13.5417 7.29167 13.5417H17.7083C18.2836 13.5417 18.75 14.008 18.75 14.5833V16.9271H19.7917C20.5108 16.9271 21.0938 16.3441 21.0938 15.625V9.375C21.0938 8.65588 20.5108 8.07292 19.7917 8.07292H5.20833ZM8.33333 3.90625C8.18951 3.90625 8.07292 4.02284 8.07292 4.16667V6.51042H16.9271V4.16667C16.9271 4.02284 16.8105 3.90625 16.6667 3.90625H8.33333Z" fill="#5A636B"/>
</svg>
