<svg width="21" height="21" viewBox="0 0 21 21" fill="none" xmlns="http://www.w3.org/2000/svg">
<path d="M12.6752 3.05748C12.6752 4.64481 14.5339 5.75729 16.0515 4.9103L16.6068 4.60065L16.9327 5.1466L18.4699 7.71853L18.8162 8.29775L18.2268 8.62617C16.7248 9.46403 16.7248 11.4991 18.2268 12.3369L18.8162 12.6653L18.4699 13.2446L16.9327 15.8174L16.6068 16.3625L16.0515 16.0528C14.534 15.2064 12.6752 16.3191 12.6752 17.9073V18.5625H8.2905V17.9073C8.2905 16.3186 6.43117 15.2058 4.91414 16.0519L4.3588 16.3616L4.03294 15.8157L2.49575 13.2437L2.14941 12.6636L2.73887 12.3352C4.24001 11.4981 4.24002 9.46501 2.73887 8.62788L2.14941 8.29946L2.49575 7.72024L4.03294 5.14745L4.3588 4.60235L4.91414 4.91201C6.43168 5.75839 8.2905 4.64568 8.2905 3.05748V2.40234H12.6752V3.05748ZM10.4828 7.86184C9.03553 7.86184 7.86227 9.03511 7.86227 10.4824C7.86227 11.9297 9.03553 13.103 10.4828 13.103C11.9301 13.103 13.1034 11.9297 13.1034 10.4824C13.1034 9.03511 11.9301 7.86184 10.4828 7.86184ZM10.4828 9.17212C11.2065 9.17212 11.7931 9.75876 11.7931 10.4824C11.7931 11.206 11.2065 11.7927 10.4828 11.7927C9.75918 11.7927 9.17255 11.206 9.17255 10.4824C9.17255 9.75876 9.75918 9.17212 10.4828 9.17212Z" fill="#5A636B"/>
</svg>
