<svg width="24" height="24" viewBox="0 0 24 24" fill="none" xmlns="http://www.w3.org/2000/svg">
<path fill-rule="evenodd" clip-rule="evenodd" d="M10.4118 14C10.9965 14 11.4706 14.4477 11.4706 15V20C11.4706 20.5523 10.9965 21 10.4118 21H4.05882C3.5107 21 3.05952 20.6067 3.00517 20.1025L3 20V15C3 14.4477 3.47405 14 4.05882 14H10.4118ZM4.58824 19.5H9.88235V15.5H4.58824V19.5Z" fill="#5A636B"/>
<path fill-rule="evenodd" clip-rule="evenodd" d="M20.0497 11.0049C20.5478 11.0528 20.9441 11.427 20.9948 11.8975L21 12V20C21 20.5177 20.5835 20.9438 20.0497 20.9951L19.9412 21H13.5882C13.0035 21 12.5294 20.5523 12.5294 20V12L12.5346 11.8975C12.5853 11.427 12.9816 11.0528 13.4797 11.0049L13.5882 11H19.9412L20.0497 11.0049ZM14.1176 19.5H19.4118V12.5H14.1176V19.5Z" fill="#5A636B"/>
<path fill-rule="evenodd" clip-rule="evenodd" d="M10.4118 3C10.9965 3 11.4706 3.44772 11.4706 4V12L11.4654 12.1025C11.4111 12.6067 10.9599 13 10.4118 13H4.05882C3.5107 13 3.05952 12.6067 3.00517 12.1025L3 12V4C3 3.44772 3.47405 3 4.05882 3H10.4118ZM4.58824 11.5H9.88235V4.5H4.58824V11.5Z" fill="#5A636B"/>
<path fill-rule="evenodd" clip-rule="evenodd" d="M20.0497 3.00488C20.5478 3.05278 20.9441 3.42703 20.9948 3.89746L21 4V9C21 9.51768 20.5835 9.94379 20.0497 9.99512L19.9412 10H13.5882C13.0035 10 12.5294 9.55228 12.5294 9V4L12.5346 3.89746C12.5853 3.42703 12.9816 3.05278 13.4797 3.00488L13.5882 3H19.9412L20.0497 3.00488ZM14.1176 8.5H19.4118V4.5H14.1176V8.5Z" fill="#5A636B"/>
</svg>
