<svg width="21" height="21" viewBox="0 0 21 21" fill="none" xmlns="http://www.w3.org/2000/svg">
<path d="M13.3021 18.2719H7.66263V16.9616H13.3021V18.2719Z" fill="#5A636B"/>
<path fill-rule="evenodd" clip-rule="evenodd" d="M10.4828 2.5332C13.8598 2.5332 16.5974 5.27082 16.5974 8.64784C16.5973 11.0073 15.2594 13.0529 13.3021 14.0724V16.1282H7.66348V14.0724C5.70623 13.0529 4.36835 11.0073 4.36816 8.64784C4.36816 5.27082 7.10578 2.5332 10.4828 2.5332ZM10.4828 3.84348C7.82943 3.84348 5.67844 5.99447 5.67844 8.64784C5.67863 10.499 6.72647 12.1075 8.26829 12.9105L8.97376 13.2773V14.8179H11.9918V13.2773L12.6973 12.9105C14.2391 12.1075 15.287 10.499 15.2872 8.64784C15.2872 5.99447 13.1362 3.84348 10.4828 3.84348Z" fill="#5A636B"/>
</svg>
